<svg xmlns="http://www.w3.org/2000/svg" width="128" height="128" viewBox="0 0 128 128" role="img" aria-label="Ads Library Media Saver icon">
  <defs>
    <linearGradient id="bg" x1="16" y1="8" x2="116" y2="120" gradientUnits="userSpaceOnUse">
      <stop offset="0" stop-color="#0F6BFF"/>
      <stop offset="0.55" stop-color="#2347C4"/>
      <stop offset="1" stop-color="#111827"/>
    </linearGradient>
    <linearGradient id="play" x1="48" y1="39" x2="86" y2="89" gradientUnits="userSpaceOnUse">
      <stop offset="0" stop-color="#FFFFFF"/>
      <stop offset="1" stop-color="#D9E7FF"/>
    </linearGradient>
  </defs>
  <rect x="10" y="10" width="108" height="108" rx="24" fill="url(#bg)"/>
  <path d="M38 35.5C38 30.8 41.8 27 46.5 27h35C86.2 27 90 30.8 90 35.5v57c0 4.7-3.8 8.5-8.5 8.5h-35C41.8 101 38 97.2 38 92.5v-57Z" fill="#F8FBFF" opacity=".95"/>
  <path d="M50 48c0-3.6 3.9-5.9 7.1-4.1l26.8 15.5c3.1 1.8 3.1 6.3 0 8.1L57.1 83C53.9 84.9 50 82.6 50 79V48Z" fill="url(#play)"/>
  <path d="M32 33h10v8H32c-2.8 0-5 2.2-5 5v36c0 2.8 2.2 5 5 5h10v8H32c-7.2 0-13-5.8-13-13V46c0-7.2 5.8-13 13-13Z" fill="#BFD8FF" opacity=".8"/>
  <path d="M86 33h10c7.2 0 13 5.8 13 13v36c0 7.2-5.8 13-13 13H86v-8h10c2.8 0 5-2.2 5-5V46c0-2.8-2.2-5-5-5H86v-8Z" fill="#BFD8FF" opacity=".8"/>
</svg>
